<?xml version="1.0" encoding="utf-8"?>
<!-- Generator: Adobe Illustrator 26.0.2, SVG Export Plug-In . SVG Version: 6.00 Build 0)  -->
<svg version="1.1" id="Layer_1" xmlns="http://www.w3.org/2000/svg" xmlns:xlink="http://www.w3.org/1999/xlink" x="0px" y="0px"
	 viewBox="0 0 355.6 208.6" style="enable-background:new 0 0 355.6 208.6;" xml:space="preserve">
<style type="text/css">
	.st0{fill:#FEC82C;}
	.st1{clip-path:url(#SVGID_00000002386371959399121440000010444523814128692659_);fill:#FEC82C;}
	.st2{fill:#000;}
</style>
<path class="st0" d="M140.3,89c12.3-5.4,24.8-8.2,37.2-8.2c12.3,0,24.8,2.8,37.2,8.2c-10.2-7.2-24.8-11.5-37.2-11.5
	C165,77.5,150.4,81.7,140.3,89 M149.6,72.3h-40.9l40.9,4.9c19.8-8.3,35.5-8.3,55.3,0l40.9-4.9H205c-0.7-0.6-1.5-1.6-2.3-2.3
	c-0.6-0.5-1.1-1.1-1.8-1.6l21-30.7l-32.1,24.4c-2-0.6-4-1.1-6-1.5c-0.2-0.1-0.3-0.1-0.4-0.2l-6.1-40.2l-6,40.2
	c-0.2,0.1-0.3,0.1-0.5,0.2c-2,0.3-4,0.8-5.9,1.5l-32.1-24.4l21,30.7c-0.6,0.5-1.3,1.1-1.8,1.6C151.1,70.7,150.4,71.6,149.6,72.3"/>
<g>
	<g>
		<defs>
			<path id="SVGID_1_" d="M140.3,89c12.3-5.4,24.8-8.2,37.2-8.2c12.3,0,24.8,2.8,37.2,8.2c-10.2-7.2-24.8-11.5-37.2-11.5
				C165,77.5,150.4,81.7,140.3,89 M149.6,72.3h-40.9l40.9,4.9c19.8-8.3,35.5-8.3,55.3,0l40.9-4.9H205c-0.7-0.6-1.5-1.6-2.3-2.3
				c-0.6-0.5-1.1-1.1-1.8-1.6l21-30.7l-32.1,24.4c-2-0.6-4-1.1-6-1.5c-0.2-0.1-0.3-0.1-0.4-0.2l-6.1-40.2l-6,40.2
				c-0.2,0.1-0.3,0.1-0.5,0.2c-2,0.3-4,0.8-5.9,1.5l-32.1-24.4l21,30.7c-0.6,0.5-1.3,1.1-1.8,1.6C151.1,70.7,150.4,71.6,149.6,72.3"
				/>
		</defs>
		<clipPath id="SVGID_00000065782461659448998540000003541446457098075045_">
			<use xlink:href="#SVGID_1_"  style="overflow:visible;"/>
		</clipPath>
		<path style="clip-path:url(#SVGID_00000065782461659448998540000003541446457098075045_);fill:#FEC82C;" d="M140.3,89
			c12.3-5.4,24.8-8.2,37.2-8.2c12.3,0,24.8,2.8,37.2,8.2c-10.2-7.2-24.8-11.5-37.2-11.5C165,77.5,150.4,81.7,140.3,89 M149.6,72.3
			h-40.9l40.9,4.9c19.8-8.3,35.5-8.3,55.3,0l40.9-4.9H205c-0.7-0.6-1.5-1.6-2.3-2.3c-0.6-0.5-1.1-1.1-1.8-1.6l21-30.7l-32.1,24.4
			c-2-0.6-4-1.1-6-1.5c-0.2-0.1-0.3-0.1-0.4-0.2l-6.1-40.2l-6,40.2c-0.2,0.1-0.3,0.1-0.5,0.2c-2,0.3-4,0.8-5.9,1.5l-32.1-24.4
			l21,30.7c-0.6,0.5-1.3,1.1-1.8,1.6C151.1,70.7,150.4,71.6,149.6,72.3"/>
	</g>
</g>
<g>
	<polyline class="st2" points="56.8,129.4 56.8,126.2 47.7,126.2 48,126.5 48,120.3 47.7,120.5 56.2,120.5 56.2,117.4 47.7,117.4 
		48,117.7 48,111.5 47.7,111.8 56.5,111.8 56.5,108.7 44.5,108.7 44.5,129.4 56.8,129.4 	"/>
	<path class="st2" d="M79.3,122.1l-0.3-0.3v4.2l0.2-0.3l-0.3,0.1c-1.6,0.5-2.9,0.8-4,0.8c-2.3,0-4.1-0.7-5.6-2.1
		c-1.4-1.4-2.2-3.2-2.2-5.4c0-2.1,0.7-3.9,2.2-5.3c1.4-1.4,3.2-2.2,5.3-2.2c2.3,0,4.6,0.7,7,2.1l0.4,0.2v-3.6l-0.2-0.1
		c-1.6-0.7-2.9-1.1-3.9-1.4c-1-0.2-2.2-0.4-3.3-0.4c-3.2,0-5.8,1-8,3.1c-2.1,2.1-3.2,4.6-3.2,7.7c0,2.9,1,5.4,3.1,7.4
		c2,2,4.8,3,8.2,3c2.4,0,5-0.6,7.5-1.6l0.2-0.1v-9.1h-7.3v3.1L79.3,122.1"/>
	<polyline class="st2" points="103.3,129.4 103.3,126.2 94.5,126.2 94.5,120.5 102.8,120.5 102.8,117.4 94.5,117.4 94.5,117.7 
		94.5,111.8 103,111.8 103,108.7 91.1,108.7 91.1,129.4 103.3,129.4 	"/>
	<polyline class="st2" points="127.3,124.4 113.7,108.8 113.6,108.7 110.9,108.7 110.9,129.4 114.2,129.4 114.2,114.4 127.1,129.3 
		127.2,129.4 130.1,129.4 130.1,108.7 126.8,108.7 126.8,124.6 127.3,124.4 	"/>
	<path class="st2" d="M149.3,126.4c-2.2,0-4.1-0.7-5.5-2.1c-1.4-1.4-2.1-3.1-2.1-5.3c0-2.1,0.7-3.9,2.2-5.3c1.4-1.4,3.3-2.1,5.5-2.1
		c2.2,0,4.4,0.7,6.8,2l0.4,0.2v-3.7l-0.2-0.1c-2.6-1.1-5-1.7-7.1-1.7c-3.1,0-5.8,1-7.9,3.1s-3.2,4.6-3.2,7.6c0,1.9,0.5,3.7,1.4,5.3
		c0.9,1.6,2.2,2.9,3.8,3.8c1.6,0.9,3.6,1.4,5.9,1.4c2.8,0,5.3-0.6,7.4-1.8l0.1-0.1v-3.8l-0.4,0.3C154,125.7,151.6,126.4,149.3,126.4
		"/>
	<polyline class="st2" points="171.8,115.7 166.4,108.8 166.4,108.7 162.2,108.7 169.9,118.6 169.9,118.4 169.9,129.4 173.4,129.4 
		173.4,118.4 173.4,118.6 181.1,108.7 176.9,108.7 176.8,108.8 171.4,115.7 171.8,115.7 	"/>
	<path class="st2" d="M211.1,126.4c-2.2,0-4.1-0.7-5.5-2.1c-1.5-1.4-2.2-3.1-2.2-5.3c0-2.1,0.7-3.9,2.2-5.3c1.5-1.4,3.3-2.1,5.5-2.1
		c2.2,0,4.4,0.7,6.7,2l0.4,0.2v-3.7l-0.2-0.1c-2.6-1.1-5-1.7-7.2-1.7c-3.1,0-5.8,1-7.9,3.1c-2.1,2.1-3.2,4.6-3.2,7.6
		c0,1.9,0.5,3.7,1.4,5.3s2.2,2.9,3.8,3.8c1.6,0.9,3.6,1.4,5.9,1.4c2.8,0,5.3-0.6,7.4-1.8l0.1-0.1V124l-0.4,0.3
		C215.9,125.7,213.5,126.4,211.1,126.4"/>
	<path class="st2" d="M236.1,108.6h-2.4l-8.8,20.8h3.6l2.5-5.9h8.2l2.6,5.8l0.1,0.2h3.6L236.1,108.6 M231.5,120.9l3.4-8.3l3.7,8.3
		C238.6,120.9,231.5,120.9,231.5,120.9z"/>
	<path class="st2" d="M259.5,124.2c0,0.7-0.3,1.3-0.8,1.7c-0.5,0.5-1.2,0.7-2,0.7c-1.9,0-3.7-1-5.2-2.9L251,123v4.6l0.1,0.1
		c1.7,1.2,3.5,1.9,5.6,1.9c1.8,0,3.3-0.6,4.4-1.6c1.1-1,1.7-2.4,1.7-4.1c0-2.4-1.3-4.3-3.8-5.9l-2.2-1.3c-1-0.6-1.7-1.1-2.1-1.6
		c-0.4-0.5-0.6-1-0.6-1.5c0-0.6,0.3-1.1,0.8-1.4c0.5-0.4,1.3-0.6,2.1-0.6c1.6,0,3.1,0.7,4.5,2l0.5,0.5V110l-0.1-0.1
		c-1.4-1-3-1.5-4.8-1.5c-1.8,0-3.3,0.5-4.5,1.6c-1.1,1-1.7,2.4-1.7,4.1c0,1.1,0.3,2.1,0.9,3c0.6,0.8,1.6,1.7,3,2.5l2.2,1.3
		C258.7,121.9,259.5,123,259.5,124.2"/>
	<rect x="270.5" y="108.7" class="st2" width="3.5" height="20.7"/>
	<polyline class="st2" points="299.2,124.4 285.7,108.8 285.6,108.7 282.9,108.7 282.9,129.4 286.2,129.4 286.2,114.3 299.2,129.4 
		302,129.4 302,108.7 298.7,108.7 298.7,124.6 299.2,124.4 	"/>
	<path class="st2" d="M328.9,111.4c-2.1-2-4.8-3-7.9-3c-3.1,0-5.8,1-7.9,3c-2.1,2-3.1,4.6-3.1,7.7c0,3,1,5.5,3.1,7.5
		c2.1,2,4.7,3,7.7,3c3.2,0,5.9-1,8-3c2.1-2,3.2-4.6,3.2-7.6C332.1,116,331,113.5,328.9,111.4 M326.4,124.3c-1.4,1.4-3.2,2.1-5.4,2.1
		c-2.1,0-3.9-0.7-5.3-2.1c-1.4-1.4-2.1-3.1-2.1-5.2c0-2.2,0.7-4,2.1-5.3c1.4-1.4,3.2-2.1,5.4-2.1c2.1,0,3.9,0.7,5.3,2.1
		c1.4,1.4,2.1,3.2,2.1,5.2C328.5,121.1,327.8,122.9,326.4,124.3z"/>
	<polyline class="st2" points="44.6,155.4 44.2,155.4 35.3,177 35.9,177 26.6,154.8 19.9,184.8 24.2,184.8 28.1,167.2 27.6,167.2 
		35.5,186.1 43.4,167.3 42.9,167.2 47,184.8 51.2,184.8 44.6,155.4 	"/>
	<path class="st2" d="M73,155.8c-8.3,0-14.9,6.5-14.9,14.8c0,8.4,6.4,14.8,14.9,14.8c8.3,0,14.8-6.5,14.8-14.8S81.3,155.8,73,155.8
		 M73,181.4c-5.9,0-10.6-4.7-10.6-10.8c0-5.9,4.7-10.8,10.6-10.8c2.8,0,5.5,1.1,7.5,3.2c2,2,3.1,4.7,3.1,7.6
		C83.5,176.5,78.8,181.4,73,181.4z"/>
	<polyline class="st2" points="119.7,185.4 119.7,156.3 115.6,156.3 115.6,176.2 115.9,175.9 115.8,175.9 116.1,176 97.4,155.6 
		97.3,155.5 96.9,155.5 96.9,184.8 101,184.8 101,164.9 100.7,165.2 100.8,165.2 100.6,165.1 119.2,185.6 119.3,185.7 119.7,185.7 
		119.7,185.4 	"/>
	<polyline class="st2" points="146.9,156.3 129.1,156.3 129.1,160.1 136.1,160.1 135.9,159.8 135.9,184.8 140.1,184.8 140.1,159.8 
		139.8,160.1 146.9,160.1 146.9,156.3 	"/>
	<path class="st2" d="M187.5,158.2c-1.6-1.3-3.9-1.9-6.6-1.9h-7v28.5h4.2v-11.9h2.5c2.9,0,5.2-0.6,6.8-1.9c2-1.6,3-3.8,3-6.5
		C190.4,161.9,189.5,159.8,187.5,158.2 M184.2,168.3c-1.2,0.8-2.6,1-4.4,1h-1.8v0.3l-0.3-0.3h0.3v-9.4h-0.3l0.3-0.3v0.3h1.9
		c1.8,0,3.1,0.3,4.1,0.9c1.2,0.8,2,2.2,2,3.6C186.1,166.1,185.5,167.4,184.2,168.3z"/>
	<path class="st2" d="M217.1,184.8h4.6l-12.9-29.2l-0.1-0.2h-0.4l-0.1,0.2l-12.8,29.2h4.3l3.3-7.7h10.7L217.1,184.8 M203.8,174.1
		l0.2-0.4l4.2-9.6l0.3-0.6l0.2,0.6l4.2,9.6l0.2,0.4H203.8z"/>
	<polyline class="st2" points="279.5,185.4 279.5,156.3 275.4,156.3 275.4,176.2 275.7,175.9 275.7,175.9 275.9,176 257.2,156.3 
		257.1,156.5 257.1,184.8 260.8,184.8 260.8,164.9 260.6,165.2 260.6,165.2 260.4,165.1 279,185.6 279.1,185.7 279.5,185.7 
		279.5,185.4 	"/>
	<polyline class="st2" points="305.2,184.5 305.2,181.1 295.3,181.1 295.6,181.3 295.6,171.4 295.3,171.7 305,171.7 305,167.9 
		295.3,167.9 295.6,168.2 295.6,159.8 295.3,160.1 305.2,160.1 305.2,156.3 291.4,156.3 291.4,184.8 305.2,184.8 305.2,184.5 	"/>
	<path class="st2" d="M329.7,162l2.5-1.5l0.2-0.1l-0.1-0.2c-1.4-2.8-4.2-4.4-7.7-4.4c-4.9,0-8.4,3.1-8.4,7.5c0,3,1.6,5.4,4.6,6.8
		c0,0,3.8,1.8,3.8,1.8l0.1,0c2.2,1.1,4.8,2.3,4.8,5c0,2.7-2.2,4.6-5.3,4.6c-2.7,0-4.9-1.4-5.9-3.6l-0.1-0.3l-0.3,0.1l-3.2,1.4
		l-0.2,0.1l0.1,0.3c1.4,3.7,4.9,5.9,9.6,5.9c2.9,0,5.4-0.9,7.2-2.5c1.6-1.6,2.5-3.7,2.5-6.1c0-3.3-2-5.9-6-7.7l-3.8-1.8
		c-2.6-1.2-3.6-2.3-3.6-4c0-2.2,1.8-3.7,4.3-3.7c2,0,3.5,0.8,4.4,2.5l0.1,0.2L329.7,162"/>
	<rect x="20.1" y="142.4" class="st2" width="313.2" height="2.1"/>
	<path class="st2" d="M238.1,172.2c1.9-0.2,3.5-0.7,4.6-1.5c2-1.6,3-3.8,3-6.4c0-2.5-1-4.6-2.9-6.1c-1.6-1.2-3.8-1.8-6.6-1.8h-7
		v28.5h4.2v-12.6l8.9,12.5l0.1,0.1h5.2L238.1,172.2 M233.2,169.5v-9.9h2.2c1.6,0,3,0.2,4.2,0.9c1.3,0.8,2.1,2.3,2.1,3.9
		c0,1.8-0.7,3.1-2,4.1c-1.2,0.8-2.7,1-4.5,1L233.2,169.5L233.2,169.5z"/>
	<path class="st2" d="M37.8,128.9l-1.1-1.4c-0.4-0.6-1-1.4-1.7-2.6c-1.2-1.9-2-3.1-2.6-3.8c-0.5-0.6-1-1.1-1.6-1.5
		c0.9-0.4,1.7-1,2.2-1.8c0.6-0.9,0.9-1.9,0.9-3.2c0-1.8-0.6-3.2-1.9-4.3c-1.2-1-2.9-1.6-5-1.6h-5.3v20.7h3.4v-8.8h0.5
		c0.9,0,1.5,0.1,1.9,0.3c0.4,0.2,0.8,0.5,1.3,1c0.5,0.5,1,1.1,1.6,1.9c0,0,1,1.6,1,1.6l0.9,1.5c0,0,0.6,0.8,0.6,0.8l0,0.1
		c0,0.1,0.1,0.1,0.1,0.2l0,0l0.9,1.3l0.1,0.1h4.1L37.8,128.9 M29,117.4c-0.5,0.3-1.5,0.4-3,0.4H25v-6.4h0.9c1.4,0,2.4,0.1,3,0.3
		c0.6,0.2,1.1,0.6,1.4,1.1c0.3,0.5,0.5,1.1,0.5,1.7c0,0.6-0.1,1.2-0.5,1.7S29.6,117.1,29,117.4z"/>
</g>
</svg>
