<?xml version="1.0" encoding="utf-8"?>
<!-- Generator: Adobe Illustrator 16.0.0, SVG Export Plug-In . SVG Version: 6.00 Build 0)  -->
<!DOCTYPE svg PUBLIC "-//W3C//DTD SVG 1.1//EN" "http://www.w3.org/Graphics/SVG/1.1/DTD/svg11.dtd">
<svg version="1.1" id="Layer_1" xmlns="http://www.w3.org/2000/svg" xmlns:xlink="http://www.w3.org/1999/xlink" x="0px" y="0px"
	 width="1058.71px" height="331.886px" viewBox="0 0 1058.71 331.886" enable-background="new 0 0 1058.71 331.886"
	 xml:space="preserve">
<g>
	<defs>
		<rect id="SVGID_1_" x="-492.087" y="-328.366" width="1920" height="1080"/>
	</defs>
	<clipPath id="SVGID_2_">
		<use xlink:href="#SVGID_1_"  overflow="visible"/>
	</clipPath>
	<path clip-path="url(#SVGID_2_)" fill="#27628E" d="M201.743,178.521c11.069,1.806,29.726-8.233,46.927-26.1
		c1.088-1.096,2.105-2.171,3.062-3.238c5.518-4.759,11.736-10.169,16.57-14.841c5.193-5.217,10.096-10.441,14.612-15.256
		c1.16,0.802,3.237,1.806,6.075,2.612c4.483,1.404,6.435,1.404,7.36,3.009c1.076,2.003-9.581,11.046-17.566,17.668
		c-13.21,11.046-19.433,20.689-16.426,28.916c1.405,4.221,5.686,7.23,12.12,7.23c6.151,0,15.418-4.815,23.002-9.638
		c3.843-2.515,8.965-6.335,14.025-10.321c-0.442,0.792-0.872,1.573-1.194,2.287c-3.381,7.633-0.541,15.465,9.376,17.873
		c8.916,2.006,18.5-1.999,28.162-8.635c3.916-2.716,8.344-6.084,12.467-9.368c-1.392,8.909,3.074,16.018,13.747,17.802
		c11.068,1.806,29.721-8.233,46.926-26.1c16.962-17.069,18.022-30.526,8.348-33.74c-13.514-4.418-41.676,5.621-57.959,22.289
		c-4.217,4.393-7.234,8.893-9.106,13.196c-5.987,5.002-12.834,10.281-16.46,12.911c-7.232,5.016-17.651,10.441-23.212,8.435
		c-8.832-3.211,1.455-16.67,21.972-38.15c3.508-3.823,7.105-7.434,10.696-11.046c6.272-0.405,18.218-0.609,23.256-0.609
		c1.121,0,2.438-0.201,2.677-1c0.075-1.2-1.679-1.404-1.96-1.404c-6.311-0.405-17.342,0-20.978,0
		c11.653-11.448,25.027-22.096,32.533-27.112c4.073-2.408,11.458-7.023,19.097-8.234l-0.244-0.602
		c-7.073-0.204-11.111,0.201-16.309,1.207c-4.637,1.007-10.022,3.616-13.573,5.221c-9.55,4.819-21.49,13.454-38.133,29.924
		c-6.909,0.194-16.542,0.595-19.736,1c-1.041,0.205-2.561,0.599-2.521,1.405c0.203,1.211,2.359,1,3.202,1
		c3.835-0.194,11.511-0.595,16.189-0.796c-8.375,8.571-13.276,13.773-18.119,19.724c-1.498,1.15-2.823,2.476-4.149,3.515
		c-2.386,1.87-15.43,12.901-21.655,16.913c-5.351,3.426-17.655,10.455-22.575,8.642c-2.278-0.802-2.837-3.612,0.314-7.632
		c3.269-4.414,8.941-9.836,16.842-16.662c6.11-5.023,16.128-15.664,15.234-23.493c-0.517-3.422-3.921-5.625-10.354-7.037
		c-2.125-0.398-7.718-1.802-8.2-3.01c-0.802-2.003,4.154-5.019,9.257-7.635c3.278-1.598,16.064-7.424,13.622-8.627
		c-1.441-0.807-9.11-0.402-10.906,0c-2.643,0.397-7.397,1.809-11.109,4.414c-4.911,3.819-7.702,8.033-6.582,10.849
		c-4.429,5.016-9.416,10.039-16.158,16.259c-0.972,0.939-2.042,1.92-3.078,2.892c3.795-8.567,1.993-14.716-4.134-16.747
		c-13.515-4.418-41.677,5.621-57.959,22.289C183.249,157.438,183.754,175.513,201.743,178.521 M384.771,148.603
		c18.122-19.075,36.61-30.921,43.848-27.51c6.521,3.01-5.009,18.273-12.716,26.299c-18.076,18.482-34.287,31.13-42.127,28.321
		C364.941,172.502,373.438,160.85,384.771,148.603 M212.456,148.603c18.121-19.075,36.61-30.921,43.848-27.51
		c6.514,3.01-5.016,18.273-12.718,26.299c-18.081,18.482-34.292,31.13-42.126,28.321
		C192.623,172.502,201.125,160.85,212.456,148.603"/>
	<path clip-path="url(#SVGID_2_)" fill="#27628E" d="M274.2,16.396c-37.327,21.755-63.771,57.23-92.552,87.621
		C139.758,148.255,82.503,182.47,0,197.712v4.809c65.914-9.796,151.203-28.714,208.747-97.3
		c17.918-21.362,37.581-59.069,72.82-84.361c2.046-1.454,2.826-2.082,3.993-2.881c0.874-0.603,1.883-1.252,2.975-1.922
		c39.452,10.812,43.749,35.212,29.411,52.08c-20.996,24.704-53.479,27.832-77.565,25.324c-6.917-0.72-10.955-4.486-13.64-2.06
		c-3.915,3.543,18.792,6.238,28.446,6.295c20.903,0.115,56.541-0.279,77.598-24.278c15.693-17.889,14.113-43.511-21.867-55.757
		c-5.405-1.84-10.987-3.429-16.733-4.812c6.849-3.669,15.158-7.372,21.414-8.97c7.388-2.089,12.89-0.894,12.649-2.392
		c-0.512-2.082-9.924-1.786-16.737-0.295c-9.176,1.85-19.006,5.872-26.732,9.613c-26.403-5.072-56.485-5.735-91.612-2.331
		C81.017,19.334,37.589,79.771,23.03,106.847c0,0-0.316,0.631-0.191,0.874c0.397,0.767,1.077,0.907,1.812,0.23
		c0.738-0.685,1.28-1.369,1.28-1.369c22.45-28.498,80.43-83.454,177.839-93.772c44.056-4.649,59.029-2.141,75.084,1.006
		c-0.063,0.033-0.136,0.07-0.197,0.102C277.131,14.746,275.993,15.285,274.2,16.396"/>
	<path clip-path="url(#SVGID_2_)" fill="#27628E" d="M1058.71,145.532c-13.443,8.871-43.849,21.274-58.747,26.97
		c20.164-11.85,14.39-27.715,13.215-36.956c-0.444-3.21-0.81-7.624,1.226-10.24c2.716-3.009,9.738-6.424,15.098-9.839
		c9.817-6.219,11.53-11.039,8.735-12.443c-4.156-2.01-9.273,0.599-16.495,7.022c-5.031,4.218-8.385,8.438-12.771,14.257
		c-4.672,5.826-16.008,15.263-24.478,22.093c-1.434,0-3.354,0.336-6.163,2.217c-1.52,0.996-3.375,2.204-4.974,3.572
		c-2.551,2.007-7.267,5.88-11.343,9.841c-1.104,0.846-2.2,1.677-3.268,2.444c-6.076,4.414-18.13,12.038-22.896,10.641
		c-4.751-1.404-1.117-7.03,4.508-14.66c6.499-8.23,22.622-25.299,40.509-40.77c-3.72-0.194-7.274,0-10.592,0.817
		c-4.271,1.2-10.226,5.21-18.768,11.838c7.94-7.424,4.98-12.049,0.71-13.654c-14.038-5.013-45.991,8.835-61.604,25.105
		c-3.14,3.225-5.727,6.8-7.668,10.394c-5.489,4.511-11.745,9.529-16.03,12.288c-5.353,3.425-17.649,10.455-22.572,8.642
		c-2.271-0.803-2.839-3.612,0.315-7.632c3.26-4.414,8.936-9.837,16.84-16.662c6.112-5.023,16.123-15.665,15.234-23.493
		c-0.523-3.422-3.92-5.626-10.355-7.037c-2.128-0.398-7.717-1.803-8.205-3.01c-0.795-2.003,4.157-5.02,9.267-7.635
		c3.274-1.598,16.059-7.424,13.615-8.628c-1.434-0.806-9.108-0.401-10.907,0c-2.645,0.398-7.395,1.809-11.106,4.414
		c-4.909,3.82-7.696,8.033-6.579,10.849c-4.436,5.017-6.959,7.718-14.166,15.027c-6.664,6.758-8.814,9.137-17.886,18.624
		c-6.908,7.231-14.476,13.438-19.298,16.541c-5.346,3.425-17.643,10.455-22.566,8.642c-2.278-0.803-2.837-3.612,0.309-7.632
		c3.275-4.414,8.943-9.837,16.848-16.662c6.105-5.023,16.123-15.665,15.234-23.493c-0.523-3.422-3.92-5.626-10.362-7.037
		c-2.106-0.398-7.71-1.803-8.19-3.01c-0.81-2.003,4.149-5.02,9.266-7.635c3.273-1.598,16.052-7.424,13.607-8.628
		c-1.439-0.806-9.114-0.401-10.906,0c-2.637,0.398-7.389,1.809-11.106,4.414c-4.909,3.82-7.696,8.033-6.579,10.849
		c-4.428,5.017-9.43,9.574-15.701,16.278c-6.985,7.463-9.522,10.386-16.451,17.488c-4.301,4.407-10.936,10.691-16.109,14.427
		c-6.069,4.414-18.13,12.038-22.888,10.641c-4.759-1.404-1.132-7.03,4.493-14.66c6.514-8.23,22.637-25.299,40.516-40.77
		c-3.719-0.194-7.273,0-10.591,0.817c-4.278,1.2-10.22,5.21-18.768,11.838c7.947-7.424,4.98-12.049,0.702-13.654
		c-14.031-5.013-45.99,8.835-61.591,25.105c-13.687,14.056-17.463,34.735,1.562,34.735c0.517,0,1.076-0.107,1.613-0.158
		c-0.531,0.308-1.031,0.638-1.57,0.939c-19.604,11.021-46.691,20.064-72.834,20.63c-26.14,0.559-41.897-9.329-46.863-21.755
		c-10.04-25.14,17.055-68.644,57.671-101.972c28.412-23.447,62.629-41.254,96.522-51.981c19.285,1.97,36.045,4.514,51.108,6.775
		c18.058,2.823,43.303,7.907,59.835,7.907c7.868,0,12.927-3.102,11.114-7.624c-5.181-12.991-31.681-21.182-60.007-21.182
		c-22.83,0-45.038,2.535-66.9,7.907c-27.782-4.523-57.864-7.907-86.586-7.907c-50.598,0-83.273,6.32-117.654,26.657
		c-23.142,13.851-42.153,34.059-46.162,55.034c-0.165,0.709,0.021,0.874,0.702,1.168c0.809,0.351,1.157-0.574,1.795-1.907
		c7.989-17.975,24.012-33.077,48.16-46.538c35.79-19.774,69.061-24.812,116.993-24.812c23.941,0,45.891,0.845,66.213,2.533
		l0.114-0.022c-0.028,0.008-0.058,0.015-0.078,0.022c0.021,0.008,0.057,0.008,0.093,0.008
		c-39.062,11.579-75.292,30.232-104.786,53.962c-30.842,24.894-58.961,64.747-45.94,98.189c6.464,16.581,30.369,30.082,65.66,30.017
		l0.015,0.036c29.968-0.846,54.798-9.602,76.044-21.469c9.817-5.195,19.134-11.609,27.711-17.965
		c-2.659,8.764,4.356,13.508,12.776,13.508c7.273,0,18.659-7.23,25.124-12.053c3.59-2.817,7.774-6.215,14.524-12.617
		c7.726-7.331,11.43-12.293,18.338-19.509c5.095-5.313,10.097-10.441,14.604-15.257c1.153,0.803,3.233,1.806,6.077,2.612
		c4.479,1.405,6.435,1.405,7.353,3.01c1.089,2.003-9.574,11.046-17.557,17.668c-13.214,11.046-19.434,20.689-16.433,28.916
		c1.405,4.22,5.684,7.23,12.125,7.23c6.149,0,15.5-4.679,23.011-9.638c9.717-6.421,13.974-10.521,20.179-16.709
		c6.7-6.675,11.838-12.394,16.746-17.396c5.152-5.256,9.782-10.877,14.297-15.693c1.16,0.803,3.238,1.806,6.076,2.612
		c4.479,1.405,6.436,1.405,7.359,3.01c1.082,2.003-9.582,11.046-17.563,17.668c-13.214,11.046-19.435,20.689-16.424,28.916
		c1.396,4.22,5.683,7.23,12.117,7.23c6.148,0,15.421-4.815,23.002-9.638c2.932-1.921,6.607-4.601,10.434-7.527
		c-2.572,9.311,0.474,17.165,12.196,17.165c8.949,0,21.168-7.23,33.465-17.064c-5.934,11.044,1.784,17.064,11.286,17.064
		c6.17,0,15.277-5.196,21.849-9.717c-0.035,0.809,0.051,1.584,0.337,2.293c1.878,5.41,8.836,7.424,16.188,7.625
		c5.755,0.401,19.184-1.004,27.417-4.221c9.538-3.461,38.122-14.126,55.987-24.825V145.532z M769.89,13.773
		c25.575,0,49.595,5.93,54.103,17.227c1.132,2.823-2.015,4.805-8.707,4.805c-15.743,0-39.691-4.805-57.471-7.907
		c-11.916-2.262-25.131-4.806-39.018-7.066C736.153,16.029,753.752,13.773,769.89,13.773 M671.76,175.512
		c-7.237-2.013,0.975-15.061,13.3-26.909c21.563-20.28,39.098-30.319,45.61-27.309c7.159,3.213-9.007,18.072-16.709,26.098
		C697.156,164.864,677.429,177.117,671.76,175.512 M892.096,175.512c-7.229-2.013,0.981-15.061,13.314-26.909
		c21.548-20.28,39.083-30.319,45.604-27.309c7.151,3.213-9.008,18.072-16.711,26.098C917.5,164.864,897.779,177.117,892.096,175.512
		 M971.107,174.502c-3.36,0-7.753-1.204-8.599-4.006c-0.602-2.207,0.395-4.622,3.912-7.037c3.11-2.001,8.621-5.018,11.258-6.824
		c5.712-3.213,9.18-6.427,9.302-8.233c8.549-6.625,16.926-13.655,22.078-19.681c0.329,9.24-5.088,25.105-11.831,32.737
		C989.846,170.288,979.504,174.502,971.107,174.502"/>
	<path clip-path="url(#SVGID_2_)" fill="#B09743" d="M550.783,273.333c-49.373-1.756-50.232-3.97-17.377-40.874
		c-36.273,33.551-38.51,32.72-41.179-16.604c-1.763,49.367-3.978,50.241-40.863,17.379c33.532,36.273,32.708,38.502-16.614,41.182
		c49.373,1.756,50.24,3.963,17.377,40.867c36.274-33.543,38.503-32.721,41.19,16.604c1.751-49.365,3.959-50.233,40.855-17.378
		C500.636,278.234,501.453,276.013,550.783,273.333"/>
</g>
<g>
	<path fill="#27628E" d="M88.117,300.114h-5.158l-1.23-5.45c-3.399,4.103-9.377,6.622-15.942,6.622
		c-17.7,0-24.616-10.314-24.616-22.096c0-11.78,7.326-22.095,24.381-22.095c12.718,0,20.865,6.446,21.803,14.651H77.86
		c-1.583-5.685-6.857-8.088-12.542-8.088c-10.843,0-15.004,6.623-15.004,15.824c0,11.136,7.15,15.239,14.535,15.239
		c8.967,0,13.07-4.104,14.476-11.019H67.486v-6.564h20.63V300.114z"/>
	<path fill="#27628E" d="M120.113,258.268h26.491c10.667,0,14.125,4.864,14.125,11.37c0,5.45-2.989,8.85-6.916,10.081v0.117
		c4.982,1.055,6.096,5.392,6.096,11.312c0,1.992,0.059,6.681,1.758,8.967h-9.495c-0.645-1.172-1.055-3.282-1.055-6.33
		c0-5.978-0.821-10.197-7.268-10.197h-14.945v16.527h-8.792V258.268z M144.084,277.022c4.865,0,7.502-1.466,7.502-6.154
		c0-4.337-2.872-6.036-7.502-6.036h-15.18v12.19H144.084z"/>
	<path fill="#27628E" d="M205.15,258.268h10.432l18.638,41.847h-9.788l-4.396-10.374h-19.693l-4.337,10.374h-9.495L205.15,258.268z
		 M217.399,283.176l-7.15-17.641l-7.268,17.641H217.399z"/>
	<path fill="#27628E" d="M261.41,258.268h10.081l24.909,31.414h0.117v-31.414h8.439v41.847h-9.905L269.967,268.7h-0.117v31.414
		h-8.44V258.268z"/>
	<path fill="#27628E" d="M336.953,258.268h22.564c16.411,0,20.455,9.377,20.455,21.334c0,9.025-4.103,20.513-18.345,20.513h-24.674
		V258.268z M345.744,293.55h12.367c6.33,0,13.07-2.051,13.07-14.301c0-13.597-8.616-14.417-13.539-14.417h-11.897V293.55z"/>
</g>
<g>
	<path fill="#27628E" d="M600.68,252.466h26.491c10.667,0,14.125,4.864,14.125,11.37c0,5.45-2.989,8.85-6.916,10.081v0.117
		c4.981,1.055,6.096,5.392,6.096,11.312c0,1.992,0.059,6.681,1.758,8.967h-9.494c-0.645-1.172-1.056-3.282-1.056-6.33
		c0-5.978-0.82-10.197-7.268-10.197h-14.945v16.527h-8.791V252.466z M624.652,271.221c4.864,0,7.502-1.466,7.502-6.154
		c0-4.337-2.872-6.036-7.502-6.036h-15.181v12.19H624.652z"/>
	<path fill="#27628E" d="M671.885,252.466h36.338v6.564h-27.547v10.549h26.434v6.564h-26.434v11.604h28.016v6.564h-36.807V252.466z"
		/>
	<path fill="#27628E" d="M754.93,251.294c6.447,0,19.342,1.172,20.455,13.304h-9.495c-0.293-3.224-3.223-6.74-10.549-6.74
		c-5.861,0-9.729,1.817-9.729,5.744c0,9.846,31.18,0.41,31.18,18.286c0,10.784-11.194,13.597-20.103,13.597
		c-15.063,0-21.1-5.919-21.217-14.711h9.495c0.234,5.51,4.806,8.147,12.015,8.147c5.333,0,10.315-1.583,10.315-6.154
		c0-10.374-30.828-1.348-30.828-18.521C736.469,254.927,744.733,251.294,754.93,251.294z"/>
	<path fill="#27628E" d="M803.221,273.389c0-11.78,6.915-22.095,24.615-22.095s24.616,10.314,24.616,22.095
		c0,11.781-6.916,22.096-24.616,22.096S803.221,285.17,803.221,273.389z M843.309,273.389c0-9.201-5.626-15.531-15.473-15.531
		s-15.473,6.33-15.473,15.531c0,9.202,5.626,15.532,15.473,15.532S843.309,282.591,843.309,273.389z"/>
	<path fill="#27628E" d="M882.104,252.466h26.491c10.667,0,14.125,4.864,14.125,11.37c0,5.45-2.989,8.85-6.916,10.081v0.117
		c4.981,1.055,6.096,5.392,6.096,11.312c0,1.992,0.059,6.681,1.758,8.967h-9.494c-0.645-1.172-1.056-3.282-1.056-6.33
		c0-5.978-0.82-10.197-7.268-10.197h-14.945v16.527h-8.791V252.466z M906.076,271.221c4.864,0,7.502-1.466,7.502-6.154
		c0-4.337-2.872-6.036-7.502-6.036h-15.181v12.19H906.076z"/>
	<path fill="#27628E" d="M964.738,259.03h-15.707v-6.564h40.206v6.564H973.53v35.282h-8.792V259.03z"/>
</g>
</svg>
